<svg width="25" height="27" viewBox="0 0 25 27" fill="none" xmlns="http://www.w3.org/2000/svg">
<path d="M16.3295 8.86191L24.7832 12.1041C25.0723 12.2482 25.0723 12.6805 24.7832 12.7525L16.3295 16.1388C16.2572 16.2108 16.185 16.2829 16.1127 16.3549L12.8613 26.7298C12.789 27.0901 12.2832 27.0901 12.1387 26.7298L8.74277 16.427C8.74277 16.3549 8.59827 16.2108 8.52601 16.2108L0.216763 12.8966C-0.0722543 12.7525 -0.0722543 12.3202 0.216763 12.2482L8.59827 8.86191C8.67052 8.78986 8.74277 8.71781 8.81503 8.64576L12.0665 0.216144C12.211 -0.072048 12.6445 -0.072048 12.7168 0.216144L16.1127 8.57372C16.1127 8.71781 16.185 8.78986 16.3295 8.86191Z" fill="#050505"/>
</svg>
